<svg width="34" height="37" viewBox="0 0 34 37" fill="none" xmlns="http://www.w3.org/2000/svg">
<path d="M17.0037 0C14.2877 0 11.9868 2.9764 10.6043 7.70063C10.5971 7.69881 10.5877 7.70244 10.5805 7.70063C10.4208 8.25177 10.2852 8.81718 10.1523 9.41188C10.1234 9.53916 10.1085 9.67574 10.0809 9.805C10.026 10.0647 9.9646 10.3246 9.91437 10.5913C9.69787 11.7353 9.53252 12.9511 9.41479 14.2219C9.41339 14.237 9.41618 14.253 9.41479 14.2681C9.37309 14.7236 9.32398 15.186 9.29584 15.6556C9.28434 15.8489 9.28119 16.0382 9.27205 16.2338C9.23695 16.9769 9.22447 17.7268 9.22447 18.5C9.22447 18.6488 9.22316 18.7918 9.22447 18.9394C8.68435 18.5206 8.19517 18.1004 7.72572 17.6906C7.73999 16.9123 7.7513 16.1469 7.79709 15.4013C7.31575 15.7657 6.86379 16.142 6.41729 16.5113C4.52909 14.6429 3.431 12.958 3.13431 11.7706C3.06732 11.5027 2.99538 11.0127 3.18189 10.73C3.41941 10.3696 4.23682 9.99 5.82255 9.99C6.60589 9.99 7.47393 10.0914 8.41562 10.2675C8.60746 9.24704 8.84365 8.2856 9.10552 7.37688C7.9286 7.15414 6.82742 7.03 5.82255 7.03C2.66861 7.03 1.24675 8.17312 0.61261 9.13438C0.193912 9.7693 -0.219077 10.8534 0.184396 12.4644C0.640487 14.2875 2.05005 16.404 4.18106 18.5231C4.17346 18.5307 4.16485 18.5386 4.15727 18.5463C4.78136 19.1632 5.48745 19.7596 6.22697 20.3731C6.2876 20.4234 6.33219 20.4848 6.3935 20.535C6.40083 20.5277 6.40993 20.5192 6.41729 20.5119C7.78129 21.6387 9.32688 22.7411 11.0087 23.7956C11.2837 23.9681 11.5591 24.1351 11.8413 24.3044C12.1307 24.4787 12.4241 24.6425 12.7216 24.8131C12.8518 24.8877 12.9706 24.9705 13.1022 25.0444C13.2384 25.1208 13.3705 25.2009 13.5066 25.2756C12.8693 25.5203 12.2386 25.7264 11.6272 25.9231C10.9426 25.5241 10.2726 25.1119 9.6289 24.6975C9.70902 25.289 9.81296 25.8719 9.91437 26.4319C8.3842 26.8229 6.97358 27.0331 5.77497 27.0331C4.19533 27.0331 3.39258 26.6663 3.1581 26.3163C3.02793 26.1224 2.99938 25.7509 3.11053 25.2988C3.3488 24.3308 4.10608 23.0649 5.37054 21.6219C4.56588 20.9566 3.83792 20.2834 3.1581 19.61C1.5937 21.3727 0.537435 23.0934 0.160606 24.6281C-0.23297 26.231 0.169361 27.3104 0.58882 27.935C1.22144 28.8755 2.64158 29.9931 5.77497 29.9931C7.29762 29.9931 9.03347 29.7238 10.9135 29.23C11.1927 29.1566 11.4846 29.0828 11.77 28.9988C11.8472 28.9761 11.9302 28.9528 12.0079 28.9294C12.0619 28.913 12.1202 28.8999 12.1744 28.8831C13.3803 28.5128 14.6264 28.0599 15.9094 27.5188C16.2723 27.366 16.6366 27.1989 17.0037 27.0331C17.0572 27.0089 17.1166 26.9882 17.1702 26.9638C17.6927 26.7253 18.2354 26.4647 18.7641 26.2006C19.0888 26.0381 19.4131 25.8637 19.7395 25.6919C20.0013 25.5542 20.262 25.4193 20.5246 25.2756C20.6935 25.1832 20.855 25.093 21.0241 24.9981C21.1146 24.9473 21.1961 24.8873 21.2858 24.8363C21.1862 25.4945 21.078 26.1204 20.9528 26.7094C20.254 27.085 19.5586 27.4582 18.8593 27.7963C19.4297 28.0231 19.991 28.2495 20.5484 28.4438C19.5011 32.1405 17.9903 34.04 17.0037 34.04C16.1526 34.04 14.9283 32.6116 13.9348 29.8544C12.9315 30.2029 11.9496 30.4971 11.0087 30.7331C12.4011 34.6455 14.5181 37 17.0037 37C21.1657 37 24.2771 30.3661 24.7353 20.9281C24.7375 20.8832 24.7333 20.8344 24.7353 20.7894C24.7696 20.0383 24.7829 19.2844 24.7829 18.5C24.7829 18.3431 24.7844 18.1932 24.7829 18.0375C25.3247 18.4544 25.8394 18.8821 26.3055 19.2863C26.2932 20.083 26.255 20.8611 26.2103 21.6219C26.6914 21.262 27.1688 20.8988 27.6139 20.535C30.346 23.2407 31.3199 25.4316 30.8493 26.27C30.6605 26.606 29.8484 26.9869 28.2086 26.9869C27.4222 26.9869 26.5489 26.902 25.6156 26.7325C25.4298 27.7507 25.2037 28.7196 24.9494 29.6231C26.1073 29.8385 27.2091 29.9469 28.2086 29.9469C31.5377 29.9469 32.9321 28.7151 33.5137 27.6806C34.8844 25.2383 33.2134 21.6446 29.3505 17.9913C29.0543 17.7118 28.7431 17.4375 28.4227 17.1588C27.7775 16.5962 27.0715 16.0282 26.3292 15.4706C25.7765 15.0552 25.1959 14.654 24.5926 14.245C24.3346 14.0698 24.0743 13.8866 23.8075 13.7131C23.5448 13.5425 23.2699 13.3731 22.9987 13.2044C22.8132 13.0889 22.6172 12.972 22.4277 12.8575C21.957 12.5732 21.4706 12.2794 20.9766 12.0019C20.8002 11.903 20.6291 11.8205 20.4532 11.7244C21.0893 11.4777 21.6993 11.2514 22.3088 11.0538C23.0088 11.4589 23.6927 11.8789 24.3547 12.3025C24.2702 11.7026 24.1757 11.1136 24.0692 10.545C25.5754 10.1608 26.9589 9.94375 28.1373 9.94375C29.5129 9.94375 30.5157 10.2468 30.8255 10.73C31.0158 11.0275 30.9383 11.4929 30.8493 11.84C30.6262 12.7073 30.0031 13.8132 28.9937 15.0313C28.8902 15.1556 28.7718 15.274 28.6606 15.4013C29.4767 16.0747 30.2216 16.7427 30.8969 17.4131C31.1313 17.1526 31.3559 16.9075 31.563 16.65C32.7034 15.2277 33.4941 13.8297 33.823 12.5569C34.244 10.9215 33.835 9.80796 33.4186 9.1575C32.7852 8.16812 31.3513 6.98375 28.1373 6.98375C26.4385 6.98375 24.4504 7.33207 22.3088 7.955C22.0876 8.01942 21.8673 8.09251 21.6427 8.16313C21.6114 8.17296 21.5789 8.1763 21.5475 8.18625C21.2006 8.29644 20.8551 8.40832 20.5008 8.53313C19.3625 8.93314 18.1978 9.40067 17.0037 9.94375C16.8456 10.0156 16.6867 10.1008 16.5279 10.175C16.0946 10.3781 15.657 10.5782 15.2195 10.7994C14.5236 11.1492 13.8281 11.5151 13.126 11.9094C12.9897 11.9858 12.8563 12.0633 12.7216 12.1406C12.8247 11.4815 12.9493 10.8351 13.0784 10.2444C13.7539 9.88244 14.4411 9.53664 15.1243 9.20375C14.5774 8.98435 14.0401 8.76894 13.5066 8.57938C14.5619 4.90356 16.0477 2.96 17.0037 2.96C17.8228 2.96 19.03 4.3993 20.025 7.1225C21.023 6.77396 21.9932 6.47907 22.9273 6.24375C21.5205 2.37281 19.4291 0 17.0037 0ZM16.9561 13.2738C17.7836 13.6772 18.6174 14.0995 19.454 14.5688C20.2378 15.0087 20.9695 15.4462 21.6665 15.8869C21.7156 16.7222 21.7378 17.5856 21.7378 18.5C21.7378 19.423 21.7137 20.2932 21.6665 21.1363C20.9818 21.5699 20.267 22.002 19.5016 22.4313C18.6661 22.8999 17.831 23.3233 17.0037 23.7263C16.2123 23.3404 15.4212 22.9471 14.6247 22.5006C13.8239 22.0511 13.0591 21.5932 12.3409 21.1363C12.2924 20.2931 12.2695 19.4266 12.2695 18.5C12.2695 17.5782 12.2918 16.708 12.3409 15.8638C13.0694 15.3974 13.8328 14.9342 14.6485 14.4763C15.4242 14.0411 16.1867 13.6531 16.9561 13.2738ZM17.0037 15.17C15.1117 15.17 13.578 16.6609 13.578 18.5C13.578 20.3391 15.1117 21.83 17.0037 21.83C18.8957 21.83 20.4294 20.3391 20.4294 18.5C20.4294 16.6609 18.8957 15.17 17.0037 15.17Z" fill="#645E5E"/>
</svg>
