<svg width="59" height="59" viewBox="0 0 59 59" fill="none" xmlns="http://www.w3.org/2000/svg">
<g clip-path="url(#clip0_20_108)">
<path d="M29.5 0C13.2075 0 0 13.2075 0 29.5C0 45.7924 13.2075 59 29.5 59C45.7924 59 59 45.7924 59 29.5C59 13.2075 45.7924 0 29.5 0ZM18.4466 49.4731H10.1534V22.79H18.4466V49.4731ZM14.3018 19.1426C11.6437 19.1426 9.49191 16.9878 9.49191 14.3332C9.49251 11.6811 11.6437 9.52631 14.3018 9.52631C16.9528 9.52631 19.1075 11.6811 19.1075 14.3332C19.1075 16.9884 16.9522 19.1426 14.3018 19.1426ZM49.5075 49.4731H41.2209V36.4967C41.2209 33.4021 41.1636 29.4221 36.9102 29.4221C32.597 29.4221 31.9336 32.7925 31.9336 36.2728V49.4725H23.6477V22.79H31.6017V26.4362H31.7133C32.8209 24.3382 35.5249 22.1267 39.5599 22.1267C47.9575 22.1267 49.5075 27.653 49.5075 34.8375V49.4731Z" fill="white"/>
</g>
<defs>
<clipPath id="clip0_20_108">
<rect width="59" height="59" fill="white"/>
</clipPath>
</defs>
</svg>
