<svg width="457" height="226" viewBox="0 0 457 226" fill="none" xmlns="http://www.w3.org/2000/svg">
<g style="mix-blend-mode:screen">
<path d="M40.2649 22.1136C40.0376 19.6136 39.0263 17.6705 37.2308 16.2841C35.4581 14.875 32.924 14.1705 29.6286 14.1705C27.4467 14.1705 25.6286 14.4545 24.174 15.0227C22.7195 15.5909 21.6286 16.375 20.9013 17.375C20.174 18.3523 19.799 19.4773 19.7763 20.75C19.7308 21.7955 19.9354 22.7159 20.3899 23.5114C20.8672 24.3068 21.549 25.0114 22.4354 25.625C23.3445 26.2159 24.4354 26.7386 25.7081 27.1932C26.9808 27.6477 28.4126 28.0455 30.0036 28.3864L36.0036 29.75C39.4581 30.5 42.5036 31.5 45.1399 32.75C47.799 34 50.0263 35.4886 51.8217 37.2159C53.6399 38.9432 55.0149 40.9318 55.9467 43.1818C56.8786 45.4318 57.3558 47.9545 57.3786 50.75C57.3558 55.1591 56.2422 58.9432 54.0376 62.1023C51.8331 65.2614 48.6626 67.6818 44.5263 69.3636C40.4126 71.0455 35.4467 71.8864 29.6286 71.8864C23.7876 71.8864 18.6967 71.0114 14.3558 69.2614C10.0149 67.5114 6.63991 64.8523 4.23082 61.2841C1.82173 57.7159 0.583097 53.2045 0.514915 47.75H16.674C16.8104 50 17.4126 51.875 18.4808 53.375C19.549 54.875 21.0149 56.0114 22.8786 56.7841C24.7649 57.5568 26.9467 57.9432 29.424 57.9432C31.6967 57.9432 33.6286 57.6364 35.2195 57.0227C36.8331 56.4091 38.0717 55.5568 38.9354 54.4659C39.799 53.375 40.2422 52.125 40.2649 50.7159C40.2422 49.3977 39.8331 48.2727 39.0376 47.3409C38.2422 46.3864 37.0149 45.5682 35.3558 44.8864C33.7195 44.1818 31.6286 43.5341 29.0831 42.9432L21.7876 41.2386C15.7422 39.8523 10.9808 37.6136 7.50355 34.5227C4.02628 31.4091 2.29901 27.2045 2.32173 21.9091C2.29901 17.5909 3.4581 13.8068 5.79901 10.5568C8.13992 7.30682 11.3786 4.77273 15.5149 2.95455C19.6513 1.13636 24.3672 0.22727 29.6626 0.22727C35.0717 0.22727 39.7649 1.14772 43.7422 2.98863C47.7422 4.80682 50.8445 7.36364 53.049 10.6591C55.2536 13.9545 56.3786 17.7727 56.424 22.1136H40.2649ZM82.7763 1.18182V71H65.9013V1.18182H82.7763ZM93.37 1.18182H114.268L131.995 44.4091H132.813L150.54 1.18182H171.438V71H155.006V28.1136H154.427L137.654 70.5568H127.154L110.381 27.875H109.802V71H93.37V1.18182ZM181.964 71V1.18182H210.805C216.032 1.18182 220.543 2.20454 224.339 4.25C228.157 6.27272 231.1 9.10227 233.168 12.7386C235.237 16.3523 236.271 20.5568 236.271 25.3523C236.271 30.1705 235.214 34.3864 233.1 38C231.009 41.5909 228.021 44.375 224.134 46.3523C220.248 48.3295 215.634 49.3182 210.293 49.3182H192.498V36.0227H207.157C209.702 36.0227 211.827 35.5795 213.532 34.6932C215.259 33.8068 216.566 32.5682 217.452 30.9773C218.339 29.3636 218.782 27.4886 218.782 25.3523C218.782 23.1932 218.339 21.3295 217.452 19.7614C216.566 18.1705 215.259 16.9432 213.532 16.0795C211.805 15.2159 209.68 14.7841 207.157 14.7841H198.839V71H181.964ZM244.589 71V1.18182H261.464V57.2955H290.509V71H244.589ZM299.245 71V1.18182H347.927V14.8864H316.12V29.2045H345.438V42.9432H316.12V57.2955H347.927V71H299.245ZM385.754 71.4119C384.371 71.4119 383.173 71.1705 382.16 70.6875C381.156 70.1951 380.417 69.4659 379.944 68.5C379.47 67.5341 379.352 66.3362 379.589 64.9062C379.797 63.6941 380.19 62.6809 380.768 61.8665C381.355 61.0426 382.07 60.3797 382.913 59.8778C383.755 59.3759 384.688 58.9924 385.711 58.7273C386.743 58.4621 387.808 58.2822 388.907 58.1875C390.176 58.0549 391.208 57.9271 392.004 57.804C392.808 57.6809 393.41 57.5057 393.808 57.2784C394.205 57.0417 394.447 56.6913 394.532 56.2273V56.142C394.674 55.2519 394.508 54.5606 394.035 54.0682C393.571 53.5663 392.827 53.3153 391.805 53.3153C390.725 53.3153 389.807 53.5521 389.049 54.0256C388.301 54.4991 387.766 55.1004 387.444 55.8295L381.933 55.375C382.425 54.0492 383.168 52.9034 384.163 51.9375C385.166 50.9621 386.374 50.214 387.785 49.6932C389.196 49.1629 390.777 48.8977 392.529 48.8977C393.741 48.8977 394.873 49.0398 395.924 49.3239C396.985 49.608 397.898 50.0483 398.665 50.6449C399.442 51.2415 400.001 52.0085 400.342 52.946C400.692 53.8741 400.763 54.9867 400.555 56.2841L398.097 71H392.359L392.87 67.9744H392.7C392.236 68.6562 391.667 69.2576 390.995 69.7784C390.323 70.2898 389.551 70.6922 388.68 70.9858C387.808 71.2699 386.833 71.4119 385.754 71.4119ZM388.183 67.2358C389.063 67.2358 389.873 67.0606 390.612 66.7102C391.36 66.3504 391.975 65.8674 392.458 65.2614C392.951 64.6553 393.263 63.9687 393.396 63.2017L393.765 60.8864C393.576 61.0095 393.301 61.1184 392.941 61.2131C392.591 61.3078 392.207 61.3977 391.79 61.483C391.383 61.5587 390.971 61.6297 390.555 61.696C390.138 61.7528 389.764 61.8097 389.433 61.8665C388.703 61.9706 388.05 62.1364 387.472 62.3636C386.895 62.5909 386.426 62.8987 386.066 63.2869C385.706 63.6657 385.484 64.1392 385.398 64.7074C385.266 65.5312 385.46 66.161 385.981 66.5966C386.511 67.0227 387.245 67.2358 388.183 67.2358ZM410.974 58.3864L408.871 71H402.835L406.471 49.1818H412.224L411.599 53.0312H411.84C412.531 51.7528 413.507 50.7443 414.766 50.0057C416.035 49.267 417.479 48.8977 419.099 48.8977C420.614 48.8977 421.878 49.2292 422.891 49.892C423.914 50.5549 424.634 51.4972 425.05 52.7188C425.477 53.9403 425.548 55.4034 425.263 57.108L422.934 71H416.883L419.028 58.1875C419.246 56.8523 419.075 55.8106 418.516 55.0625C417.967 54.3049 417.082 53.9261 415.86 53.9261C415.046 53.9261 414.298 54.1013 413.616 54.4517C412.934 54.8021 412.361 55.3134 411.897 55.9858C411.442 56.6487 411.135 57.4489 410.974 58.3864ZM435.686 71.3551C434.019 71.3551 432.585 70.929 431.382 70.0767C430.189 69.215 429.337 67.9508 428.825 66.2841C428.323 64.608 428.276 62.553 428.683 60.1193C429.1 57.6193 429.848 55.5407 430.928 53.8835C432.007 52.2169 433.286 50.9716 434.763 50.1477C436.24 49.3144 437.779 48.8977 439.379 48.8977C440.591 48.8977 441.571 49.1061 442.32 49.5227C443.077 49.9299 443.66 50.4413 444.067 51.0568C444.474 51.6629 444.758 52.2595 444.919 52.8466H445.104L446.936 41.9091H452.973L448.143 71H442.178L442.76 67.5057H442.504C442.125 68.1117 441.624 68.7131 440.999 69.3097C440.383 69.8968 439.635 70.3845 438.754 70.7727C437.883 71.161 436.86 71.3551 435.686 71.3551ZM438.357 66.5398C439.322 66.5398 440.194 66.2746 440.97 65.7443C441.747 65.2045 442.4 64.4517 442.93 63.4858C443.461 62.5199 443.83 61.3883 444.038 60.0909C444.256 58.7936 444.261 57.6667 444.053 56.7102C443.844 55.7538 443.437 55.0152 442.831 54.4943C442.234 53.9735 441.444 53.7131 440.459 53.7131C439.464 53.7131 438.584 53.983 437.817 54.5227C437.059 55.0625 436.429 55.8106 435.928 56.767C435.435 57.7235 435.085 58.8314 434.876 60.0909C434.668 61.3598 434.654 62.482 434.834 63.4574C435.014 64.4233 435.397 65.1809 435.984 65.7301C436.571 66.2699 437.362 66.5398 438.357 66.5398ZM5.69052 148V105.818H34.4846V114.098H15.8858V122.749H32.6515V131.049H15.8858V148H5.69052ZM43.475 148H32.5176L46.7498 105.818H60.323L74.5552 148H63.5978L53.6909 116.446H53.3613L43.475 148ZM42.0126 131.399H64.916V139.143H42.0126V131.399ZM100.594 118.464C100.457 116.954 99.8461 115.78 98.7614 114.942C97.6903 114.091 96.1593 113.665 94.1683 113.665C92.8501 113.665 91.7517 113.837 90.8729 114.18C89.9941 114.524 89.335 114.997 88.8956 115.602C88.4562 116.192 88.2296 116.872 88.2159 117.641C88.1884 118.272 88.312 118.828 88.5866 119.309C88.875 119.79 89.2869 120.215 89.8224 120.586C90.3717 120.943 91.0308 121.259 91.7997 121.533C92.5687 121.808 93.4337 122.048 94.3949 122.254L98.0199 123.078C100.107 123.531 101.947 124.135 103.54 124.891C105.146 125.646 106.492 126.545 107.577 127.589C108.675 128.632 109.506 129.834 110.069 131.193C110.632 132.553 110.92 134.077 110.934 135.766C110.92 138.429 110.247 140.716 108.915 142.624C107.584 144.533 105.668 145.995 103.169 147.011C100.684 148.027 97.6835 148.536 94.1683 148.536C90.6394 148.536 87.5637 148.007 84.9411 146.95C82.3184 145.892 80.2794 144.286 78.8239 142.13C77.3684 139.974 76.62 137.249 76.5788 133.953H86.3416C86.424 135.312 86.7879 136.445 87.4332 137.352C88.0786 138.258 88.9643 138.944 90.0902 139.411C91.2299 139.878 92.5481 140.112 94.0447 140.112C95.4179 140.112 96.585 139.926 97.5462 139.555C98.5211 139.185 99.2694 138.67 99.7912 138.011C100.313 137.352 100.581 136.596 100.594 135.745C100.581 134.949 100.334 134.269 99.853 133.706C99.3724 133.129 98.6309 132.635 97.6286 132.223C96.6399 131.797 95.3767 131.406 93.8388 131.049L89.4311 130.019C85.7786 129.182 82.902 127.829 80.8011 125.962C78.7003 124.08 77.6567 121.54 77.6705 118.341C77.6567 115.732 78.357 113.446 79.7713 111.482C81.1856 109.519 83.1423 107.988 85.6413 106.889C88.1404 105.791 90.9896 105.241 94.1889 105.241C97.4569 105.241 100.292 105.798 102.695 106.91C105.112 108.008 106.986 109.553 108.318 111.544C109.65 113.535 110.33 115.842 110.357 118.464H100.594ZM114.703 114.098V105.818H150.356V114.098H137.565V148H127.514V114.098H114.703ZM168.89 156.182C168.113 156.182 167.403 156.12 166.759 155.997C166.115 155.884 165.585 155.737 165.168 155.557L167.299 151.04C167.971 151.258 168.582 151.371 169.131 151.381C169.69 151.39 170.201 151.248 170.665 150.955C171.129 150.661 171.555 150.178 171.944 149.506L172.483 148.582L168.393 126.182H174.529L176.376 142.233H176.603L183.833 126.182H190.466L177.981 150.358C177.365 151.542 176.636 152.569 175.793 153.44C174.96 154.312 173.97 154.984 172.824 155.457C171.688 155.94 170.376 156.182 168.89 156.182ZM199.11 148.426C196.875 148.426 195.024 147.972 193.556 147.062C192.088 146.144 191.056 144.847 190.459 143.17C189.872 141.485 189.773 139.491 190.161 137.19C190.54 134.946 191.302 132.976 192.448 131.281C193.603 129.586 195.052 128.265 196.795 127.318C198.537 126.371 200.478 125.898 202.618 125.898C204.058 125.898 205.36 126.13 206.525 126.594C207.699 127.048 208.674 127.74 209.451 128.668C210.227 129.586 210.758 130.737 211.042 132.119C211.335 133.502 211.331 135.121 211.028 136.977L210.758 138.639H192.349L192.931 134.889H205.658C205.8 134.018 205.743 133.246 205.488 132.574C205.232 131.902 204.806 131.376 204.209 130.997C203.613 130.609 202.879 130.415 202.008 130.415C201.117 130.415 200.284 130.633 199.508 131.068C198.731 131.504 198.078 132.077 197.547 132.787C197.027 133.488 196.69 134.25 196.539 135.074L195.871 138.795C195.682 139.941 195.72 140.893 195.985 141.651C196.26 142.408 196.733 142.976 197.405 143.355C198.078 143.724 198.93 143.909 199.962 143.909C200.635 143.909 201.264 143.814 201.851 143.625C202.448 143.436 202.978 143.156 203.442 142.787C203.906 142.408 204.285 141.939 204.579 141.381L210.104 141.75C209.593 143.095 208.816 144.269 207.775 145.273C206.733 146.267 205.478 147.044 204.01 147.602C202.552 148.152 200.919 148.426 199.11 148.426ZM228.41 126.182L227.657 130.727H214.504L215.271 126.182H228.41ZM219.106 120.955H225.157L221.777 141.295C221.682 141.854 221.696 142.29 221.819 142.602C221.943 142.905 222.146 143.118 222.43 143.241C222.724 143.365 223.074 143.426 223.481 143.426C223.765 143.426 224.054 143.402 224.348 143.355C224.641 143.298 224.864 143.256 225.015 143.227L225.243 147.73C224.902 147.834 224.443 147.948 223.865 148.071C223.297 148.194 222.624 148.27 221.848 148.298C220.371 148.355 219.121 148.161 218.098 147.716C217.075 147.261 216.341 146.565 215.896 145.628C215.451 144.69 215.356 143.511 215.612 142.091L219.106 120.955ZM239.905 148V105.818H250.101V122.749H266.722V105.818H276.897V148H266.722V131.049H250.101V148H239.905ZM292.416 148H281.459L295.691 105.818H309.264L323.497 148H312.539L302.632 116.446H302.303L292.416 148ZM290.954 131.399H313.857V139.143H290.954V131.399ZM363.938 105.818V148H355.287L338.501 123.655H338.233V148H328.038V105.818H336.812L353.413 130.122H353.763V105.818H363.938ZM385.94 148H370.349V105.818H385.92C390.218 105.818 393.918 106.663 397.021 108.352C400.138 110.027 402.541 112.443 404.23 115.602C405.919 118.746 406.763 122.508 406.763 126.888C406.763 131.282 405.919 135.058 404.23 138.217C402.555 141.375 400.159 143.798 397.042 145.487C393.925 147.162 390.224 148 385.94 148ZM380.544 139.308H385.549C387.911 139.308 389.909 138.91 391.543 138.114C393.19 137.304 394.433 135.992 395.271 134.18C396.122 132.353 396.548 129.923 396.548 126.888C396.548 123.854 396.122 121.437 395.271 119.638C394.419 117.826 393.163 116.522 391.501 115.725C389.854 114.915 387.821 114.51 385.405 114.51H380.544V139.308ZM407.84 105.818H419.23L428.148 123.469H428.519L437.437 105.818H448.827L433.4 133.912V148H423.267V133.912L407.84 105.818ZM10.5158 225.249C9.34914 225.249 8.34487 224.95 7.50302 224.354C6.66779 223.75 6.0712 222.866 5.71325 221.699C5.36192 220.526 5.32878 219.087 5.61381 217.384C5.90548 215.634 6.42915 214.179 7.18484 213.018C7.94052 211.852 8.8354 210.98 9.8695 210.403C10.9036 209.82 11.9808 209.528 13.101 209.528C13.9495 209.528 14.6356 209.674 15.1593 209.966C15.6896 210.251 16.0972 210.609 16.3823 211.04C16.6673 211.464 16.8662 211.882 16.9789 212.293H17.1081L18.3908 204.636H22.6167L19.236 225H15.0598L15.4675 222.554H15.2885C15.0234 222.978 14.6721 223.399 14.2346 223.817C13.8037 224.228 13.28 224.569 12.6635 224.841C12.0537 225.113 11.3378 225.249 10.5158 225.249ZM12.3851 221.878C13.0613 221.878 13.6711 221.692 14.2147 221.321C14.7582 220.943 15.2156 220.416 15.5868 219.74C15.958 219.064 16.2166 218.272 16.3624 217.364C16.5149 216.455 16.5182 215.667 16.3723 214.997C16.2265 214.328 15.9415 213.811 15.5172 213.446C15.0996 213.081 14.5461 212.899 13.8567 212.899C13.1607 212.899 12.5442 213.088 12.0073 213.466C11.477 213.844 11.0362 214.367 10.6848 215.037C10.3401 215.706 10.0949 216.482 9.94904 217.364C9.80321 218.252 9.79326 219.037 9.91921 219.72C10.0452 220.396 10.3136 220.927 10.7246 221.311C11.1356 221.689 11.6891 221.878 12.3851 221.878ZM27.024 225.288C26.0562 225.288 25.2176 225.119 24.5083 224.781C23.8057 224.437 23.2886 223.926 22.9572 223.25C22.6258 222.574 22.5429 221.735 22.7086 220.734C22.8545 219.886 23.1296 219.177 23.5339 218.607C23.9449 218.03 24.4454 217.566 25.0353 217.214C25.6253 216.863 26.2782 216.595 26.9941 216.409C27.7167 216.223 28.4624 216.098 29.2314 216.031C30.1196 215.938 30.8422 215.849 31.399 215.763C31.9624 215.677 32.3833 215.554 32.6618 215.395C32.9402 215.229 33.1092 214.984 33.1689 214.659V214.599C33.2683 213.976 33.1523 213.492 32.8208 213.148C32.496 212.796 31.9757 212.621 31.2598 212.621C30.5041 212.621 29.8611 212.786 29.3308 213.118C28.8071 213.449 28.4326 213.87 28.2072 214.381L24.3493 214.062C24.694 213.134 25.2143 212.332 25.9103 211.656C26.613 210.973 27.4582 210.45 28.4458 210.085C29.4335 209.714 30.5405 209.528 31.7669 209.528C32.6154 209.528 33.4075 209.628 34.1433 209.827C34.8857 210.026 35.5254 210.334 36.0623 210.751C36.6059 211.169 36.997 211.706 37.2356 212.362C37.4809 213.012 37.5306 213.791 37.3848 214.699L35.6646 225H31.6475L32.0055 222.882H31.8862C31.5614 223.359 31.1636 223.78 30.693 224.145C30.2224 224.503 29.6821 224.785 29.0723 224.99C28.4624 225.189 27.7797 225.288 27.024 225.288ZM28.7243 222.365C29.3407 222.365 29.9075 222.242 30.4245 221.997C30.9482 221.745 31.3791 221.407 31.7172 220.983C32.0618 220.559 32.2806 220.078 32.3734 219.541L32.6319 217.92C32.4993 218.007 32.3071 218.083 32.0552 218.149C31.81 218.215 31.5415 218.278 31.2498 218.338C30.9648 218.391 30.6764 218.441 30.3848 218.487C30.0931 218.527 29.8313 218.567 29.5993 218.607C29.0888 218.679 28.6315 218.795 28.2271 218.955C27.8227 219.114 27.4946 219.329 27.2427 219.601C26.9908 219.866 26.835 220.197 26.7754 220.595C26.6826 221.172 26.8185 221.613 27.1831 221.918C27.5543 222.216 28.068 222.365 28.7243 222.365ZM49.6199 209.727L49.0929 212.909H39.8855L40.4224 209.727H49.6199ZM43.1071 206.068H47.3429L44.9764 220.307C44.9101 220.698 44.92 221.003 45.0062 221.222C45.0924 221.434 45.2349 221.583 45.4338 221.669C45.6393 221.755 45.8845 221.798 46.1696 221.798C46.3684 221.798 46.5706 221.782 46.7761 221.749C46.9816 221.709 47.1374 221.679 47.2434 221.659L47.4025 224.811C47.1639 224.884 46.8424 224.964 46.438 225.05C46.0403 225.136 45.5697 225.189 45.0261 225.209C43.992 225.249 43.117 225.113 42.4011 224.801C41.6852 224.483 41.1715 223.996 40.8599 223.339C40.5484 222.683 40.4821 221.858 40.661 220.864L43.1071 206.068ZM54.149 225.288C53.1812 225.288 52.3426 225.119 51.6333 224.781C50.9307 224.437 50.4136 223.926 50.0822 223.25C49.7508 222.574 49.6679 221.735 49.8336 220.734C49.9795 219.886 50.2546 219.177 50.6589 218.607C51.0699 218.03 51.5704 217.566 52.1603 217.214C52.7503 216.863 53.4032 216.595 54.1191 216.409C54.8417 216.223 55.5874 216.098 56.3564 216.031C57.2446 215.938 57.9672 215.849 58.524 215.763C59.0874 215.677 59.5083 215.554 59.7868 215.395C60.0652 215.229 60.2342 214.984 60.2939 214.659V214.599C60.3933 213.976 60.2773 213.492 59.9458 213.148C59.621 212.796 59.1007 212.621 58.3848 212.621C57.6291 212.621 56.9861 212.786 56.4558 213.118C55.9321 213.449 55.5576 213.87 55.3322 214.381L51.4743 214.062C51.819 213.134 52.3393 212.332 53.0353 211.656C53.738 210.973 54.5832 210.45 55.5708 210.085C56.5585 209.714 57.6655 209.528 58.8919 209.528C59.7404 209.528 60.5325 209.628 61.2683 209.827C62.0107 210.026 62.6504 210.334 63.1873 210.751C63.7309 211.169 64.122 211.706 64.3606 212.362C64.6059 213.012 64.6556 213.791 64.5098 214.699L62.7896 225H58.7725L59.1305 222.882H59.0112C58.6864 223.359 58.2886 223.78 57.818 224.145C57.3474 224.503 56.8071 224.785 56.1973 224.99C55.5874 225.189 54.9047 225.288 54.149 225.288ZM55.8493 222.365C56.4657 222.365 57.0325 222.242 57.5495 221.997C58.0732 221.745 58.5041 221.407 58.8422 220.983C59.1868 220.559 59.4056 220.078 59.4984 219.541L59.7569 217.92C59.6243 218.007 59.4321 218.083 59.1802 218.149C58.935 218.215 58.6665 218.278 58.3748 218.338C58.0898 218.391 57.8014 218.441 57.5098 218.487C57.2181 218.527 56.9563 218.567 56.7243 218.607C56.2138 218.679 55.7565 218.795 55.3521 218.955C54.9477 219.114 54.6196 219.329 54.3677 219.601C54.1158 219.866 53.96 220.197 53.9004 220.595C53.8076 221.172 53.9435 221.613 54.3081 221.918C54.6793 222.216 55.193 222.365 55.8493 222.365ZM102.934 192.409C102.782 190.742 102.108 189.447 100.911 188.523C99.7292 187.583 98.0398 187.114 95.8429 187.114C94.3883 187.114 93.1762 187.303 92.2065 187.682C91.2368 188.061 90.5095 188.583 90.0247 189.25C89.5398 189.902 89.2898 190.652 89.2747 191.5C89.2444 192.197 89.3807 192.811 89.6838 193.341C90.002 193.871 90.4565 194.341 91.0474 194.75C91.6535 195.144 92.3807 195.492 93.2292 195.795C94.0777 196.098 95.0323 196.364 96.0929 196.591L100.093 197.5C102.396 198 104.426 198.667 106.184 199.5C107.957 200.333 109.441 201.326 110.638 202.477C111.85 203.629 112.767 204.955 113.388 206.455C114.01 207.955 114.328 209.636 114.343 211.5C114.328 214.439 113.585 216.962 112.116 219.068C110.646 221.174 108.532 222.788 105.775 223.909C103.032 225.03 99.7217 225.591 95.8429 225.591C91.9489 225.591 88.555 225.008 85.661 223.841C82.7671 222.674 80.5171 220.902 78.911 218.523C77.305 216.144 76.4792 213.136 76.4338 209.5H87.2065C87.2974 211 87.6989 212.25 88.411 213.25C89.1232 214.25 90.1004 215.008 91.3429 215.523C92.6004 216.038 94.055 216.295 95.7065 216.295C97.2217 216.295 98.5095 216.091 99.5701 215.682C100.646 215.273 101.472 214.705 102.047 213.977C102.623 213.25 102.919 212.417 102.934 211.477C102.919 210.598 102.646 209.848 102.116 209.227C101.585 208.591 100.767 208.045 99.661 207.591C98.5701 207.121 97.1762 206.689 95.4792 206.295L90.6156 205.159C86.5853 204.235 83.411 202.742 81.0929 200.682C78.7747 198.606 77.6232 195.803 77.6383 192.273C77.6232 189.394 78.3959 186.871 79.9565 184.705C81.5171 182.538 83.6762 180.848 86.4338 179.636C89.1913 178.424 92.3353 177.818 95.8656 177.818C99.4717 177.818 102.6 178.432 105.252 179.659C107.919 180.871 109.987 182.576 111.457 184.773C112.926 186.97 113.676 189.515 113.707 192.409H102.934ZM120.025 225V178.455H152.479V187.591H131.275V197.136H150.82V206.295H131.275V215.864H152.479V225H120.025ZM201.775 195.318H190.411C190.26 194.152 189.949 193.098 189.479 192.159C189.01 191.22 188.388 190.417 187.616 189.75C186.843 189.083 185.926 188.576 184.866 188.227C183.82 187.864 182.661 187.682 181.388 187.682C179.131 187.682 177.184 188.235 175.547 189.341C173.926 190.447 172.676 192.045 171.797 194.136C170.934 196.227 170.502 198.758 170.502 201.727C170.502 204.818 170.941 207.409 171.82 209.5C172.714 211.576 173.964 213.144 175.57 214.205C177.191 215.25 179.108 215.773 181.32 215.773C182.563 215.773 183.691 215.614 184.706 215.295C185.737 214.977 186.638 214.515 187.411 213.909C188.199 213.288 188.843 212.538 189.343 211.659C189.858 210.765 190.214 209.758 190.411 208.636L201.775 208.705C201.578 210.765 200.979 212.795 199.979 214.795C198.994 216.795 197.638 218.621 195.911 220.273C194.184 221.909 192.078 223.212 189.593 224.182C187.123 225.152 184.29 225.636 181.093 225.636C176.881 225.636 173.108 224.712 169.775 222.864C166.456 221 163.835 218.288 161.911 214.727C159.987 211.167 159.025 206.833 159.025 201.727C159.025 196.606 160.002 192.265 161.956 188.705C163.911 185.144 166.555 182.439 169.888 180.591C173.222 178.742 176.956 177.818 181.093 177.818C183.911 177.818 186.517 178.212 188.911 179C191.305 179.773 193.411 180.909 195.229 182.409C197.047 183.894 198.525 185.72 199.661 187.886C200.797 190.053 201.502 192.53 201.775 195.318ZM236.371 178.455H247.599V208.477C247.599 211.947 246.773 214.97 245.121 217.545C243.47 220.106 241.167 222.091 238.212 223.5C235.258 224.894 231.826 225.591 227.917 225.591C223.962 225.591 220.508 224.894 217.553 223.5C214.599 222.091 212.303 220.106 210.667 217.545C209.03 214.97 208.212 211.947 208.212 208.477V178.455H219.462V207.5C219.462 209.106 219.811 210.538 220.508 211.795C221.22 213.053 222.212 214.038 223.485 214.75C224.758 215.462 226.235 215.818 227.917 215.818C229.599 215.818 231.068 215.462 232.326 214.75C233.599 214.038 234.591 213.053 235.303 211.795C236.015 210.538 236.371 209.106 236.371 207.5V178.455ZM254.65 225V178.455H273.877C277.362 178.455 280.369 179.083 282.9 180.341C285.445 181.583 287.407 183.371 288.786 185.705C290.165 188.023 290.854 190.773 290.854 193.955C290.854 197.182 290.15 199.924 288.741 202.182C287.331 204.424 285.331 206.136 282.741 207.318C280.15 208.485 277.081 209.068 273.536 209.068H261.377V200.205H271.445C273.142 200.205 274.559 199.985 275.695 199.545C276.847 199.091 277.718 198.409 278.309 197.5C278.9 196.576 279.195 195.394 279.195 193.955C279.195 192.515 278.9 191.326 278.309 190.386C277.718 189.432 276.847 188.72 275.695 188.25C274.544 187.765 273.127 187.523 271.445 187.523H265.9V225H254.65ZM280.854 203.727L292.445 225H280.172L268.809 203.727H280.854ZM308.275 178.455V225H297.025V178.455H308.275ZM313.814 187.591V178.455H353.155V187.591H339.042V225H327.951V187.591H313.814ZM356.331 178.455H368.9L378.741 197.932H379.15L388.991 178.455H401.559L384.536 209.455V225H373.354V209.455L356.331 178.455ZM420.849 211.909L420.397 214.636H412.505L412.965 211.909H420.849ZM415.266 208.773H418.897L416.868 220.977C416.812 221.312 416.82 221.574 416.894 221.761C416.968 221.943 417.09 222.071 417.26 222.145C417.437 222.219 417.647 222.256 417.891 222.256C418.062 222.256 418.235 222.241 418.411 222.213C418.587 222.179 418.721 222.153 418.812 222.136L418.948 224.838C418.743 224.901 418.468 224.969 418.121 225.043C417.78 225.116 417.377 225.162 416.911 225.179C416.025 225.213 415.275 225.097 414.661 224.83C414.047 224.557 413.607 224.139 413.34 223.577C413.073 223.014 413.016 222.307 413.17 221.455L415.266 208.773ZM426.823 225.256C425.488 225.256 424.383 224.972 423.508 224.403C422.633 223.83 422.016 223.034 421.658 222.017C421.306 220.994 421.241 219.804 421.462 218.446C421.678 217.105 422.127 215.932 422.809 214.926C423.491 213.92 424.357 213.139 425.408 212.582C426.459 212.02 427.644 211.739 428.962 211.739C430.292 211.739 431.394 212.026 432.269 212.599C433.144 213.168 433.76 213.963 434.118 214.986C434.476 216.009 434.545 217.199 434.323 218.557C434.101 219.892 433.647 221.062 432.959 222.068C432.272 223.074 431.405 223.858 430.36 224.42C429.314 224.977 428.135 225.256 426.823 225.256ZM427.181 222.443C427.795 222.443 428.337 222.27 428.809 221.923C429.286 221.571 429.681 221.094 429.993 220.491C430.312 219.884 430.533 219.196 430.658 218.429C430.783 217.673 430.792 217.003 430.684 216.418C430.576 215.827 430.349 215.361 430.002 215.02C429.661 214.679 429.192 214.509 428.596 214.509C427.982 214.509 427.437 214.685 426.959 215.037C426.482 215.384 426.087 215.861 425.775 216.469C425.462 217.077 425.243 217.767 425.118 218.54C424.999 219.29 424.991 219.96 425.093 220.551C425.195 221.136 425.42 221.599 425.766 221.94C426.113 222.276 426.584 222.443 427.181 222.443ZM441.542 225.256C440.206 225.256 439.101 224.972 438.226 224.403C437.351 223.83 436.735 223.034 436.377 222.017C436.025 220.994 435.959 219.804 436.181 218.446C436.397 217.105 436.846 215.932 437.528 214.926C438.209 213.92 439.076 213.139 440.127 212.582C441.178 212.02 442.363 211.739 443.681 211.739C445.01 211.739 446.113 212.026 446.988 212.599C447.863 213.168 448.479 213.963 448.837 214.986C449.195 216.009 449.263 217.199 449.042 218.557C448.82 219.892 448.366 221.062 447.678 222.068C446.991 223.074 446.124 223.858 445.079 224.42C444.033 224.977 442.854 225.256 441.542 225.256ZM441.9 222.443C442.513 222.443 443.056 222.27 443.528 221.923C444.005 221.571 444.4 221.094 444.712 220.491C445.03 219.884 445.252 219.196 445.377 218.429C445.502 217.673 445.51 217.003 445.403 216.418C445.295 215.827 445.067 215.361 444.721 215.02C444.38 214.679 443.911 214.509 443.314 214.509C442.701 214.509 442.155 214.685 441.678 215.037C441.201 215.384 440.806 215.861 440.493 216.469C440.181 217.077 439.962 217.767 439.837 218.54C439.718 219.29 439.709 219.96 439.812 220.551C439.914 221.136 440.138 221.599 440.485 221.94C440.831 222.276 441.303 222.443 441.9 222.443ZM456.857 207.545L453.959 225H450.329L453.226 207.545H456.857Z" fill="white" fill-opacity="0.8"/>
</g>
</svg>
