<svg width="59" height="59" viewBox="0 0 59 59" fill="none" xmlns="http://www.w3.org/2000/svg">
<path d="M29.5001 1.17993C13.8592 1.17993 1.18005 13.859 1.18005 29.4999C1.18005 45.1408 13.8592 57.8199 29.5001 57.8199C45.141 57.8199 57.8201 45.1408 57.8201 29.4999C57.8201 13.859 45.141 1.17993 29.5001 1.17993ZM40.3915 33.1314C40.3915 33.1314 42.896 35.6035 43.5126 36.751C43.5303 36.7746 43.5391 36.7982 43.545 36.81C43.7958 37.2319 43.8548 37.5593 43.7309 37.8042C43.5244 38.2113 42.8164 38.4119 42.5745 38.4296H38.1495C37.8427 38.4296 37.1996 38.3499 36.4208 37.813C35.8219 37.3941 35.2319 36.7068 34.6567 36.0371C33.7982 35.04 33.0548 34.1786 32.3055 34.1786C32.2103 34.1785 32.1157 34.1934 32.0253 34.2229C31.4589 34.4058 30.7332 35.2141 30.7332 37.3676C30.7332 38.0402 30.2022 38.4266 29.8275 38.4266H27.8009C27.1106 38.4266 23.5145 38.1847 20.3285 34.8247C16.4286 30.7094 12.9181 22.4553 12.8886 22.3786C12.6674 21.8447 13.1246 21.5585 13.6232 21.5585H18.0924C18.6883 21.5585 18.883 21.9214 19.0187 22.2429C19.178 22.6176 19.7621 24.1073 20.7209 25.7829C22.2755 28.5146 23.2284 29.6238 23.9924 29.6238C24.1357 29.6221 24.2764 29.5857 24.4025 29.5176C25.3996 28.963 25.2137 25.4083 25.1695 24.6708C25.1695 24.5321 25.1665 23.0807 24.6562 22.3845C24.2904 21.8801 23.6679 21.6883 23.2903 21.6175C23.4431 21.4066 23.6445 21.2356 23.8774 21.119C24.5618 20.7768 25.7949 20.7266 27.0191 20.7266H27.7006C29.0281 20.7443 29.3703 20.8299 29.8511 20.9508C30.8246 21.1839 30.8453 21.8122 30.7597 23.9628C30.7332 24.5734 30.7066 25.2637 30.7066 26.0779C30.7066 26.2549 30.6978 26.4437 30.6978 26.6443C30.6683 27.7388 30.6329 28.9807 31.4058 29.4911C31.5066 29.5543 31.6231 29.588 31.7421 29.5884C32.0105 29.5884 32.8188 29.5884 35.0077 25.8331C35.6828 24.6243 36.2694 23.3683 36.763 22.0748C36.8072 21.9981 36.937 21.7621 37.0904 21.6706C37.2036 21.6129 37.3291 21.5836 37.4562 21.5851H42.7102C43.2825 21.5851 43.6748 21.6706 43.7486 21.8919C43.8784 22.2429 43.725 23.3138 41.3266 26.5617L40.2558 27.9748C38.0816 30.8245 38.0816 30.969 40.3915 33.1314Z" fill="white"/>
</svg>
