<svg width="59" height="59" viewBox="0 0 59 59" fill="none" xmlns="http://www.w3.org/2000/svg">
<g clip-path="url(#clip0_20_131)">
<path d="M30.4267 0.0235971C30.2458 0.0135862 30.0663 0 29.884 0C29.8368 0 29.7896 0.00572052 29.7424 0.00643558C29.6616 0.00572052 29.5815 0 29.5 0C13.2337 0 0 13.2337 0 29.4993C0 45.7663 13.2337 59 29.5 59C45.7663 59 59 45.7663 59 29.4993C59 13.5448 46.2647 0.515562 30.4267 0.0235971ZM29.9626 54.6767C29.9362 54.6774 29.9112 54.681 29.8847 54.681C29.8582 54.681 29.8325 54.6774 29.8068 54.6767H29.9626ZM27.3541 54.1218C24.3744 52.7997 21.7551 49.21 19.9703 44.3197C22.2972 43.7505 24.782 43.3808 27.3541 43.2342V54.1218ZM27.3541 38.9403C24.3658 39.0983 21.467 39.5338 18.7461 40.2174C18.114 37.5659 17.7071 34.6721 17.5741 31.6452H27.3541V38.9403ZM17.5727 27.3548C17.7179 24.0083 18.1998 20.8263 18.9485 17.9517C21.6057 18.6024 24.4345 19.0114 27.3541 19.163V27.3548H17.5727ZM27.3541 14.8655C24.91 14.7218 22.5267 14.3742 20.2792 13.8422C22.0505 9.36735 24.541 6.09664 27.3541 4.84957V14.8655ZM31.6445 19.2009C34.8287 19.0851 37.9227 18.6575 40.818 17.9467C41.5674 20.8227 42.0501 24.0062 42.1953 27.3548H31.6445V19.2009ZM31.6445 14.9055V4.56211C34.775 5.51816 37.5638 8.97192 39.4952 13.8615C37.0232 14.4443 34.376 14.7983 31.6445 14.9055ZM40.7179 6.93255C42.9597 8.05163 45.0105 9.49463 46.8124 11.2001C45.8106 11.7228 44.7416 12.1947 43.6182 12.6145C42.7966 10.4964 41.8213 8.58793 40.7179 6.93255ZM16.1533 12.6052C14.8397 12.1168 13.6084 11.5554 12.4693 10.9326C14.5058 9.06345 16.8491 7.52749 19.414 6.40341C18.1626 8.17319 17.0636 10.2605 16.1533 12.6052ZM14.8254 16.6968C13.9624 19.946 13.4261 23.5406 13.2795 27.3541H4.38835C4.80595 22.4251 6.6451 17.8974 9.49749 14.1819C11.1171 15.1522 12.9069 15.9924 14.8254 16.6968ZM13.2802 31.6452C13.4168 35.1462 13.883 38.4583 14.6281 41.4909C12.598 42.2496 10.7231 43.1606 9.04486 44.2082C6.45131 40.6114 4.78378 36.3081 4.38835 31.6459L13.2802 31.6452ZM15.8651 45.5947C16.8355 48.2733 18.0454 50.6409 19.4455 52.6116C16.611 51.3738 14.0474 49.6305 11.8679 47.4946C13.0864 46.7788 14.4307 46.146 15.8651 45.5947ZM31.6445 54.4093V43.1942C34.4804 43.3086 37.2313 43.6962 39.7955 44.3254C37.8591 49.6291 34.9395 53.4018 31.6445 54.4093ZM31.6445 38.8967V31.6452H42.1938C42.0608 34.6642 41.6561 37.5502 41.0268 40.1952C38.0836 39.4587 34.9252 39.0132 31.6445 38.8967ZM46.4885 31.6452H54.6116C54.2291 36.1644 52.6509 40.3468 50.1918 43.8757C48.6487 42.9554 46.9576 42.1516 45.1442 41.473C45.8871 38.444 46.3512 35.1376 46.4885 31.6452ZM46.4892 27.3548C46.3419 23.5406 45.8063 19.946 44.9433 16.696C46.6558 16.0675 48.2633 15.3288 49.7399 14.4894C52.4586 18.1455 54.2055 22.5617 54.6116 27.3548H46.4892ZM40.6893 52.0825C41.9343 50.2226 43.0176 48.0402 43.9021 45.599C45.1485 46.0773 46.324 46.6201 47.4088 47.2229C45.461 49.19 43.1921 50.8361 40.6893 52.0825Z" fill="white"/>
</g>
<defs>
<clipPath id="clip0_20_131">
<rect width="59" height="59" fill="white"/>
</clipPath>
</defs>
</svg>
