<svg width="636" height="558" viewBox="0 0 636 558" fill="none" xmlns="http://www.w3.org/2000/svg">
<g clip-path="url(#clip0_20_105)">
<path d="M531.666 482.631C629.468 442.865 639.843 459.276 670.596 529.617L674.44 538.409C636.833 554.851 624.202 525.961 608.085 533.007C612.478 543.056 606.92 555.959 593.853 573.642C574.871 559.498 562.419 552.972 554.36 556.496C558.204 565.288 553.99 577.604 542.266 594.699L538.786 597.717C516.932 595.302 503.686 590.62 499.293 580.571C491.234 584.094 486.226 598.253 485.061 621.205C463.208 618.79 449.962 614.108 445.568 604.059C428.108 611.693 440.739 640.583 404.475 656.437L399.532 645.132C370.427 578.56 368.111 558.625 453.766 516.689L455.962 521.713C460.332 531.708 468.767 539.436 479.413 543.199C490.059 546.963 502.044 546.452 512.73 541.78C523.417 537.108 531.93 528.657 536.397 518.287C540.864 507.916 540.918 496.475 536.549 486.481C535.409 486.379 534.34 485.961 533.474 485.277C532.607 484.594 531.979 483.675 531.666 482.631V482.631ZM357.96 30.4236C418.023 58.0267 419.3 82.9035 426.684 96.1333C458.405 72.9686 496.876 60.3676 535.84 60.3802C564.958 61.1154 587.421 72.2414 594.256 84.2151C579.421 92.3927 568.005 105.376 562.2 120.672C597.676 116.836 633.167 121.358 665.546 133.841C694.001 145.904 719.489 163.207 740.622 184.804C742.268 185.888 743.549 187.398 744.323 189.17C745.098 190.943 745.338 192.908 745.015 194.853C737.948 213.293 729.157 231.159 718.755 248.227C706.516 268.244 693.079 287.608 678.515 306.216C705.496 309.382 721.184 315.989 728.018 327.963C707.931 344.226 696.697 355.122 684.119 366.606C678.502 372.054 666.718 381.694 654.141 393.178C617.969 251.893 523.832 278.088 483.539 295.704C455.333 308.035 448.552 336.435 424.376 347.004C400.2 357.574 376.09 342.68 346.541 355.598C316.993 368.517 243.605 427.533 307.803 534.122C298.489 535.394 289.122 535.988 279.783 535.899C255.221 539.162 231.014 545.224 207.685 553.954C206.029 554.997 204.052 555.422 202.15 555.144C200.248 554.865 198.562 553.904 197.43 552.453C197.024 551.89 196.744 551.249 196.606 550.569L194.959 546.8C191.875 524.046 194.838 500.634 203.58 478.696C209.137 465.793 221.655 446.854 228.92 445.174C210.47 433.486 188.812 426.931 166.23 426.2C142.079 427.237 118.014 431.222 94.6221 438.057C87.3574 439.737 83.328 441.499 82.415 428.432C81.6341 364.438 93.669 318.779 119.314 289.613C138.002 265.73 163.064 246.999 191.663 235.54C184.069 225.712 174.914 217.106 164.503 210.01C156.158 203.422 147.181 197.583 137.677 192.562C135.402 191.308 133.726 189.281 132.962 186.86C132.199 184.44 132.4 181.792 133.529 179.414C134.872 178.827 135.666 176.984 137.009 176.397C149.92 168.068 164.565 162.691 179.744 160.705C203.127 157.807 226.539 161.643 246.952 171.719C228.285 128.273 203.092 87.9002 172.135 51.8187C158.71 24.7719 297.897 2.82043 357.96 30.4236ZM407.147 417.376C417.892 412.679 433.334 422.385 441.023 439.97C448.711 457.556 445.35 475.483 434.605 480.181C423.86 484.878 408.417 475.172 400.729 457.587C393.041 440.001 396.402 422.074 407.147 417.376ZM495.792 378.621C506.537 373.923 521.98 383.63 529.668 401.215C537.356 418.8 533.995 436.728 523.25 441.425C512.505 446.123 497.063 436.416 489.375 418.831C481.686 401.246 483.704 383.906 495.792 378.621V378.621Z" fill="#F0F0F0"/>
</g>
<defs>
<clipPath id="clip0_20_105">
<rect width="762.248" height="712.862" fill="white" transform="translate(-85 122.345) rotate(-23.6148)"/>
</clipPath>
</defs>
</svg>
