<svg width="59" height="59" viewBox="0 0 59 59" fill="none" xmlns="http://www.w3.org/2000/svg">
<path d="M29.5 0C12.9062 0 0 12.9062 0 29.5C0 48.8594 17.5156 57.1562 20.2812 57.1562C22.125 57.1562 22.125 56.2344 22.125 55.3125V50.7031C15.6719 52.5469 12.9062 48.8594 11.9844 46.0938C11.9844 46.0938 11.9844 45.1719 10.1406 43.3281C9.21875 42.4062 5.53125 40.5625 9.21875 40.5625C11.9844 40.5625 13.8281 44.25 13.8281 44.25C16.5938 47.9375 20.2812 47.0156 22.125 46.0938C22.125 44.25 23.9688 42.4062 23.9688 42.4062C16.5938 41.4844 11.0625 38.7188 11.0625 28.5781C11.0625 24.8906 11.9844 22.125 13.8281 20.2812C13.8281 20.2812 11.9844 16.5938 13.8281 11.9844C13.8281 11.9844 18.4375 11.9844 22.125 15.6719C24.8906 13.8281 34.1094 13.8281 36.875 15.6719C40.5625 11.9844 45.1719 11.9844 45.1719 11.9844C47.0156 18.4375 45.1719 20.2812 45.1719 20.2812C47.0156 22.125 47.9375 24.8906 47.9375 28.5781C47.9375 38.7188 41.4844 41.4844 35.0312 42.4062C35.9531 43.3281 36.875 45.1719 36.875 47.9375V55.3125C36.875 56.2344 36.875 57.1562 38.7188 57.1562C41.4844 57.1562 59 48.8594 59 29.5C59 12.9062 46.0938 0 29.5 0Z" fill="white"/>
</svg>
