<svg width="59" height="59" viewBox="0 0 59 59" fill="none" xmlns="http://www.w3.org/2000/svg">
<g clip-path="url(#clip0_20_129)">
<path d="M29.5 0C13.2086 0 0 13.2086 0 29.5C0 45.7914 13.2086 59 29.5 59C45.7914 59 59 45.7914 59 29.5C59 13.2086 45.7914 0 29.5 0ZM43.9894 20.21L39.1465 43.0233C38.79 44.6409 37.8264 45.0342 36.4817 44.2721L29.1067 38.8392L25.5519 42.2661C25.2077 42.7086 24.6743 42.9913 24.0769 42.9913C24.072 42.9913 24.0695 42.9913 24.0646 42.9913L24.5882 35.4836L38.2566 23.1378C38.8466 22.6142 38.1238 22.3167 37.3396 22.8404L20.4533 33.4751L13.1767 31.2036C11.6033 30.7046 11.5591 29.6303 13.5085 28.8584L41.9416 17.8991C43.2642 17.4173 44.4147 18.2138 43.987 20.2124L43.9894 20.21Z" fill="white"/>
</g>
<defs>
<clipPath id="clip0_20_129">
<rect width="59" height="59" fill="white"/>
</clipPath>
</defs>
</svg>
